<svg id="Layer_1" data-name="Layer 1" xmlns="http://www.w3.org/2000/svg" viewBox="0 0 2755.07 3016.7"><defs><style>.cls-1,.cls-5,.cls-6{fill:none;}.cls-1,.cls-2,.cls-4,.cls-5,.cls-6{stroke:#333;stroke-width:10px;}.cls-1,.cls-2,.cls-4,.cls-6{stroke-miterlimit:10;}.cls-2{fill:#dadce0;}.cls-3{fill:#4385f5;}.cls-4{fill:#333;}.cls-5,.cls-6{stroke-linecap:round;}.cls-5{stroke-linejoin:round;}</style></defs><path class="cls-1" d="M2662.14,4236.05c275.16-16.51,531.06-46.78,531.06-46.78" transform="translate(-1457.11 -1323.79)"/><path class="cls-2" d="M3998.61,2836a3.83,3.83,0,0,1-5-2.83l-.85-4a3.84,3.84,0,0,0-5-2.82L3603.46,2961a3.87,3.87,0,0,1-4.2-1.14c-11.24-13.4-76-89.72-119.08-123.74-38-30-147.64-39.93-204.71-46.55-13.93-1.61-24.74-3-30.6-4.5-29.89-7.47-133.23-3.73-186.76,12.45-46.66,14.11-36.58,50.89-33.22,60.13a3.81,3.81,0,0,0,3,2.48l175.67,29.09a3.83,3.83,0,0,1,.35,7.49L3039,2940a21.28,21.28,0,0,0-15.88,18.13c-3.54,33.14,32.88,41.21,46.29,43.05a3.8,3.8,0,0,1,3.06,5c-20.24,55.82,37.37,69.1,56.7,72a3.82,3.82,0,0,1,2.73,5.73c-8.65,14.43-26,55.72,50.67,65.95,25.76,3.43,59.12,3.36,93.89,1.45,82.29-4.49,172.62-19.26,189.63-22.13a3.8,3.8,0,0,1,4.09,2.13L3599.45,3402a3.63,3.63,0,0,1,.32,1l88.78,510.36a3.8,3.8,0,0,1-2,4c-40.78,21.19-731.23,298.38-1691.8,117.54-1.75-.32,22.13-478.77,2.77-772.38-.11-1.76-2.57-2.4-2.3-4.16,12-76.48,21.23-139.11,23.42-163.2,7.31-80.43,2.1-198.43,1.88-203.39.4,6.62,13.64,218.83,50.41,250.08,37.35,31.75,63.5-9.34,63.5-28,0-14.18-.72-146.81,1-142.89l79.71,184.94a20.84,20.84,0,0,0,20.44,12.54c18.53-1.15,47.08-9,44.54-47.11-3.74-56-48.56-203.56-69.1-285.73S2160.57,2675,2089.6,2650.7s-282-50.43-315.61,41.08c-30.53,83.12-124.25,432.82-141.17,496.22a3.78,3.78,0,0,1-4,2.79q-14.1-1.08-27.45-1.95c-25.35-1.67-48.45-2.82-68.22-3.6-32.92-1.32-56.65-1.64-66.36-1.73a3.83,3.83,0,0,1-3.69-4.77s158.68-616.34,212-841.18,298.38-249.73,683-337.15c31.25-7.11,85-15.09,149.72-23.22a3.85,3.85,0,0,1,3.92,5.53c-13.21,26.58-30.24,50.31-52.13,68.86a3.76,3.76,0,0,1-3.64.71c-11.39-3.74-69-21.17-105.65-3.51a50.46,50.46,0,0,0-24.33,24.11c-27.25,57,83.51,210.06,202.33,106.23a3.8,3.8,0,0,1,4.08-.63c13.9,6.28,91.66,39.92,185.06,51,87.07,10.34,187.71,1.1,262.91-68.11,60-55.23,95.22-107.5,115.5-152.54,15.57-34.52,22.37-64.8,24.87-89a3.81,3.81,0,0,1,3.55-3.4l371.42-25.61c134.58,0,243.21,99,306.92,236.77,87.77,189.76,189.08,659.67,198.5,703.85A3.81,3.81,0,0,1,3998.61,2836Z" transform="translate(-1457.11 -1323.79)"/><path class="cls-3" d="M3274.81,3405.76l-328.7,14.95-77.19-876.53,403.4-2.49,1.14,243.13c-13.94-1.6-24.74-3-30.61-4.49-29.88-7.47-134,0-187.59,16.18-46.65,14.11-37,54.26-33.61,63.5a3.8,3.8,0,0,0,3,2.48l170.51,26.57a3.83,3.83,0,0,1,.34,7.49l-160.63,41.62A21.27,21.27,0,0,0,3019,2956.3c-3.54,33.14,30.17,45.47,43.58,47.31a3.79,3.79,0,0,1,3.06,5c-20.25,55.83,35.75,71.13,55.08,74,2.69.39,7.37,3.32,6,5.64-8.66,14.43-28,48.56,41.71,65.37,25.26,6.09,71.68,6.26,106.45,4.36Z" transform="translate(-1457.11 -1323.79)"/><path class="cls-1" d="M3121.07,1916.73c3.27-36.35-3.2-58-3.2-58s129.49-7.47,129.49-84.67c0-65.31-41-144.9-120-119.55-14.37,4.6-30,12.66-46.84,24.93,0,0-246.52,194.23-530.4-19.92,0,0,24.59,188.47-35.27,316.79" transform="translate(-1457.11 -1323.79)"/><path class="cls-4" d="M3126.11,1650.79c-14.37,4.59-30,12.66-46.84,24.92,0,0-246.52,194.23-530.39-19.92,0,0,37.35,286.37-92.14,393.44,0,0-66.83-23.87-107.65-4.18-25.45-37.57-47.32-95-51.58-182.44-8.46-173.36,94.78-304.17,145.93-357.91a67.15,67.15,0,0,1,62.59-19.4l26.78,5.68s-16.8-132.6,134.46-158.74C2811.6,1307.29,3061.31,1418.35,3126.11,1650.79Z" transform="translate(-1457.11 -1323.79)"/><path class="cls-5" d="M2730.15,2107.25s149.4,18.68,211-123.25" transform="translate(-1457.11 -1323.79)"/><ellipse class="cls-1" cx="2592.48" cy="1926.37" rx="157.56" ry="174.05" transform="translate(-1674.06 -990.84) rotate(-7.05)"/><ellipse class="cls-1" cx="2911.82" cy="1780.71" rx="157.56" ry="174.05" transform="translate(-1653.75 -952.72) rotate(-7.05)"/><path class="cls-5" d="M2762.4,1872.43l23,126.46a8.62,8.62,0,0,0,13.6,5.38l53.62-39.7" transform="translate(-1457.11 -1323.79)"/><line class="cls-1" x1="1286" y1="554.24" x2="1315.88" y2="538.06"/><path class="cls-1" d="M3988.79,2829.89l215.68,988.36a118.13,118.13,0,0,1-6,69.64c-25.8,63.54-97.94,174.08-274.37,99.85a161.19,161.19,0,0,1-82.8-79.22l-241.64-506.08" transform="translate(-1457.11 -1323.79)"/><line class="cls-5" x1="2142.15" y1="1636.05" x2="2501.18" y2="2043.96"/><path class="cls-1" d="M1533.18,3185.24c-11.12,108.85-71,698.12-71.07,754-.17,105.8,92.25,167.58,280.13,147.53,99.53-10.62,179.27-379.1,179.27-379.1s44.3-262.11,73.23-446.35" transform="translate(-1457.11 -1323.79)"/><path class="cls-6" d="M1865.34,2878.44s-8.72,125.75,2.49,154.39,61,10,61,10,1.25,64.83,23.66,73.46c43.8,16.87,64.38-5.17,64.38-5.17" transform="translate(-1457.11 -1323.79)"/><line class="cls-5" x1="472.97" y1="1554.65" x2="471.72" y2="1719"/><line class="cls-5" x1="1620.09" y1="1679.57" x2="1791.49" y2="1675.42"/><path class="cls-5" d="M3137.38,3082.63s136.12-11.2,162.27-29.88" transform="translate(-1457.11 -1323.79)"/><circle class="cls-3" cx="1120.4" cy="1713.75" r="207.65"/><path class="cls-3" d="M2754.13,2785.44l-376-149.71a3.71,3.71,0,0,1-.93-6.37l317.65-250.78a3.72,3.72,0,0,1,6,2.38l58.36,400.48A3.72,3.72,0,0,1,2754.13,2785.44Z" transform="translate(-1457.11 -1323.79)"/><rect class="cls-3" x="1819.08" y="3294.45" width="987.05" height="482.24" transform="translate(-826.21 -1663.82) rotate(9.73)"/><path class="cls-5" d="M2393.24,2111.07s65.58-25.73,91.31,44.82" transform="translate(-1457.11 -1323.79)"/><line class="cls-5" x1="966.84" y1="827.95" x2="985.11" y2="788.94"/><path class="cls-5" d="M3168.5,1698.54s-33.15,11.2-36.07,53.23c-1,14,1.42,31.43,9.51,53" transform="translate(-1457.11 -1323.79)"/><path class="cls-5" d="M3183.44,1727.59s-19.84,36.73-51,24.18" transform="translate(-1457.11 -1323.79)"/><path class="cls-5" d="M1632.82,3188c-16.8,79.43-50.61,269.07-50.61,269.07" transform="translate(-1457.11 -1323.79)"/><polygon class="cls-3" points="451.01 3016.7 1341.37 3016.7 1258.67 2614.97 514.61 2614.97 451.01 3016.7"/><polygon class="cls-3" points="1661.4 2314.11 2203.47 2298.37 2326.24 3016.7 1661.4 3016.7 1661.4 2314.11"/><line class="cls-5" x1="1993.82" y1="1082.17" x2="2124.41" y2="1615.33"/><line class="cls-5" x1="528.78" y1="1306.64" x2="528.78" y2="1234.42"/></svg>